<svg width="203" height="203" viewBox="0 0 203 203" fill="none" xmlns="http://www.w3.org/2000/svg">
<path d="M100.401 77.3478C133.068 55.1876 142.668 49.089 142.668 47.4587C142.668 46.3114 138.321 47.0963 135.06 48.8474C117.429 58.267 79.7503 85.0163 80.6561 87.5523C81.3806 89.7261 84.6412 88.0354 100.401 77.3478Z" fill="#094067" fill-opacity="0.61"/>
<path d="M197.616 35.8657C197.616 33.7523 192.604 31.6993 189.525 32.5447C187.23 33.1485 177.267 40.0925 158.066 52.2293C139.528 63.883 135.302 67.0832 136.389 68.7739C138.079 71.4911 147.257 64.668 180.105 46.5534C198.159 36.53 197.616 36.8318 197.616 35.8657Z" fill="#094067" fill-opacity="0.61"/>
<path d="M116.704 78.917C78.7839 100.473 87.177 97.2732 57.4086 112.188C30.8406 125.532 27.278 126.377 17.6772 122.09C6.92925 117.26 5.48014 118.648 9.88803 129.638C11.8203 134.468 12.3032 136.341 12.0617 138.333C11.5183 142.862 9.22371 149.443 7.04995 152.402C0.166404 161.942 14.4166 157.897 15.5034 157.414C21.119 154.998 26.7949 157.414 35.0069 165.686C40.4412 171.12 48.8948 172.207 46.8418 167.196C42.4339 156.448 43.8227 145.398 58.1936 132.899C69.8474 122.815 87.4185 108.806 102.997 98.1791C125.761 82.6006 127.693 80.9702 125.822 78.7964C124.553 77.2869 119.421 77.3471 116.704 78.917ZM47.3249 131.329C33.5578 145.156 34.8258 154.455 34.4635 155.542C26.6138 151.496 27.8214 151.798 17.798 151.255L19.368 147.873C22.8097 140.446 20.153 130.483 20.153 130.423L24.6816 131.872C33.3162 134.589 40.4412 133.261 49.4985 127.283C51.4308 126.015 53.1819 124.928 53.3631 124.928C53.6046 124.868 50.8874 127.766 47.3249 131.329Z" fill="#094067" fill-opacity="0.61"/>
</svg>
