<svg width="52" height="51" viewBox="0 0 52 51" fill="none" xmlns="http://www.w3.org/2000/svg">
<g clip-path="url(#clip0_110_126)">
<path d="M16.4418 0.5H21.92V2.74583H18.7325V4.99167H21.92V7.2375H16.4418V0.5ZM23.0144 0.5H28.4948V2.45417H25.3073V2.84375H28.4948V7.33542H23.0144V5.28542H26.2019V4.89375H23.0144V0.5ZM29.5913 0.5H35.0674V2.45417H31.8799V2.84375H35.0674V7.33542H29.5913V5.28542H32.7788V4.89375H29.5913V0.5Z" fill="#264DE4"/>
<path fill-rule="evenodd" clip-rule="evenodd" d="M25.9809 50.5001L11.2249 46.4834L6.875 10.3271H45.125L40.7773 46.4792L25.9809 50.5001ZM15.4749 26.6938L15.8807 31.1271H31.5569L31.032 36.8771L25.9873 38.2146H25.983L20.9467 36.8813L20.6238 33.3459H16.0826L16.7159 40.3084L25.9809 42.8292L35.2607 40.3084L36.3912 27.8834L36.5017 26.6938L37.3178 17.7167H14.661L15.0732 22.1521H32.3623L31.95 26.6938H15.4749Z" fill="#264DE4"/>
</g>
<defs>
<clipPath id="clip0_110_126">
<rect width="51" height="50" fill="white" transform="translate(0.5 0.5)"/>
</clipPath>
</defs>
</svg>
