<svg width="26" height="35" viewBox="0 0 26 35" fill="none" xmlns="http://www.w3.org/2000/svg">
<path d="M3.76367 0H5.26645V1.52279H6.64145V0H8.14423V4.60969H6.64145V3.06695H5.26645V4.60969H3.76506V0H3.76367ZM10.1192 1.52849H8.79701V0H12.9456V1.52849H11.622V4.60969H10.1192V1.52849V1.52849ZM13.604 0H15.1706L16.1345 1.61966L17.097 0H18.6637V4.60969H17.1678V2.32479L16.1345 3.96439H16.1081L15.0734 2.32621V4.60969H13.604V0V0ZM19.4109 0H20.9151V3.08689H23.0262V4.61111H19.4109V0V0Z" fill="#FF5733"/>
<path fill-rule="evenodd" clip-rule="evenodd" d="M3.71667 31.3333L0.875 6.61108H25.875L23.0319 31.3305L13.3611 34.0797L3.71667 31.3333ZM9.4625 17.8005L9.19306 14.6951H20.5056L20.7694 11.6638H5.96389L6.76111 20.8333H17.0069L16.6639 24.7649L13.3667 25.6795H13.3639L10.0722 24.7678L9.86111 22.3504H6.89167L7.30556 27.1111L13.3611 28.8347L19.4264 27.1111L20.1653 18.6154L20.2375 17.802H9.4625V17.8005Z" fill="#FF5733"/>
</svg>
