<svg width="26" height="34" viewBox="0 0 26 34" fill="none" xmlns="http://www.w3.org/2000/svg">
<path d="M7.12793 0.373291H10.7085V1.87051H8.62515V3.36774H10.7085V4.86496H7.12793V0.373291ZM11.4238 0.373291H15.0057V1.67607H12.9224V1.93579H15.0057V4.93024H11.4238V3.56357H13.5071V3.30246H11.4238V0.373291ZM15.7224 0.373291H19.3015V1.67607H17.2182V1.93579H19.3015V4.93024H15.7224V3.56357H17.8057V3.30246H15.7224V0.373291Z" fill="#264DE4"/>
<path fill-rule="evenodd" clip-rule="evenodd" d="M13.3625 33.7065L3.71806 31.0287L0.875 6.92456H25.875L23.0333 31.0259L13.3625 33.7065ZM6.49583 17.8357L6.76111 20.7912H17.0069L16.6639 24.6246L13.3667 25.5162H13.3639L10.0722 24.6273L9.86111 22.2704H6.89306L7.30694 26.9121L13.3625 28.5926L19.4278 26.9121L20.1667 18.6287L20.2389 17.8357L20.7722 11.8509H5.96389L6.23333 14.8079H17.5333L17.2639 17.8357H6.49583V17.8357Z" fill="#264DE4"/>
</svg>
