<svg width="51" height="51" viewBox="0 0 51 51" fill="none" xmlns="http://www.w3.org/2000/svg">
<g clip-path="url(#clip0_110_121)">
<path d="M11.0833 0.5H13.3375V2.72708H15.4V0.5H17.6541V7.24167H15.4V4.98542H13.3375V7.24167H11.0854V0.5H11.0833ZM20.6166 2.73542H18.6333V0.5H24.8562V2.73542H22.8708V7.24167H20.6166V2.73542ZM25.8437 0.5H28.1937L29.6396 2.86875L31.0833 0.5H33.4333V7.24167H31.1896V3.9L29.6396 6.29792H29.6L28.0479 3.90208V7.24167H25.8437V0.5ZM34.5542 0.5H36.8104V5.01458H39.9771V7.24375H34.5542V0.5Z" fill="#FF5733"/>
<path fill-rule="evenodd" clip-rule="evenodd" d="M11.0125 46.4834L6.75 10.3271H44.25L39.9854 46.4792L25.4792 50.5001L11.0125 46.4834ZM19.6312 26.6917L19.2271 22.1501H36.1958L36.5917 17.7167H14.3833L15.5792 31.1271H30.9479L30.4333 36.8771L25.4875 38.2146H25.4833L20.5458 36.8813L20.2292 33.3459H15.775L16.3958 40.3084L25.4792 42.8292L34.5771 40.3084L35.6854 27.8834L35.7937 26.6938H19.6312V26.6917Z" fill="#FF5733"/>
</g>
<defs>
<clipPath id="clip0_110_121">
<rect width="50" height="50" fill="white" transform="translate(0.5 0.5)"/>
</clipPath>
</defs>
</svg>
