<svg width="61" height="60" viewBox="0 0 61 60" fill="none" xmlns="http://www.w3.org/2000/svg">
<g clip-path="url(#clip0_276_158)">
<path d="M20.5 29.0166V44.9999H36.4833L33.15 41.6666H23.8333V32.3499L20.5 29.0166Z" fill="white"/>
<path d="M63.6169 53.8167L58.8335 48.9667V53.3333H12.1669V46.4167H15.5002V43.75H12.1669V32.6667H15.5002V30H12.1669V19.3333H15.5002V16.6667H12.1669V7.35001L38.7335 33.7667V29.0667L11.6835 2.15001C11.4504 1.91496 11.1526 1.75466 10.828 1.68954C10.5034 1.62443 10.1668 1.65745 9.86106 1.78439C9.55532 1.91134 9.29431 2.12645 9.1113 2.40232C8.9283 2.67819 8.8316 3.0023 8.83352 3.33334V55C8.83352 55.442 9.00912 55.866 9.32168 56.1785C9.63424 56.4911 10.0582 56.6667 10.5002 56.6667H62.4335C62.7646 56.6686 63.0887 56.5719 63.3645 56.3889C63.6404 56.2059 63.8555 55.9449 63.9825 55.6391C64.1094 55.3334 64.1424 54.9968 64.0773 54.6722C64.0122 54.3476 63.8519 54.0498 63.6169 53.8167Z" fill="white"/>
<path d="M45.4998 49.9999H52.1665C53.0506 49.9999 53.8984 49.6488 54.5235 49.0236C55.1486 48.3985 55.4998 47.5507 55.4998 46.6666V14.4999L51.6665 7.44995C51.37 6.93632 50.9419 6.51108 50.4263 6.2181C49.9106 5.92513 49.3262 5.77503 48.7332 5.78328C48.1267 5.78809 47.5331 5.95825 47.0162 6.27543C46.4993 6.59262 46.0788 7.0448 45.7998 7.58328L42.1665 14.5333V46.6666C42.1665 47.5507 42.5177 48.3985 43.1428 49.0236C43.7679 49.6488 44.6158 49.9999 45.4998 49.9999ZM45.4998 15.3333L48.7332 9.04995L52.1665 15.3499V39.9999H45.4998V15.3333ZM45.4998 42.7166H52.1665V46.7833H45.4998V42.7166Z" fill="white"/>
</g>
<defs>
<clipPath id="clip0_276_158">
<rect width="60" height="60" fill="white" transform="translate(0.5)"/>
</clipPath>
</defs>
</svg>
