<svg width="25" height="38" viewBox="0 0 25 38" fill="none" xmlns="http://www.w3.org/2000/svg">
<g clip-path="url(#clip0_135_117)">
<path d="M6.25 37.5C9.7 37.5 12.5 34.7 12.5 31.25V25H6.25C2.8 25 0 27.8 0 31.25C0 34.7 2.8 37.5 6.25 37.5Z" fill="#0ACF83"/>
<path d="M0 18.75C0 15.3 2.8 12.5 6.25 12.5H12.5V25H6.25C2.8 25 0 22.2 0 18.75Z" fill="#A259FF"/>
<path d="M0 6.25C0 2.8 2.8 0 6.25 0H12.5V12.5H6.25C2.8 12.5 0 9.7 0 6.25Z" fill="#F24E1E"/>
<path d="M12.5 0H18.75C22.2 0 25 2.8 25 6.25C25 9.7 22.2 12.5 18.75 12.5H12.5V0Z" fill="#FF7262"/>
<path d="M25 18.75C25 22.2 22.2 25 18.75 25C15.3 25 12.5 22.2 12.5 18.75C12.5 15.3 15.3 12.5 18.75 12.5C22.2 12.5 25 15.3 25 18.75Z" fill="#1ABCFE"/>
</g>
<defs>
<clipPath id="clip0_135_117">
<rect width="25" height="37.5" fill="white"/>
</clipPath>
</defs>
</svg>
