<svg width="33" height="34" viewBox="0 0 33 34" fill="none" xmlns="http://www.w3.org/2000/svg">
<path d="M0.875 0.618896H32.875V33.461H0.875V0.618896Z" fill="#F5DE19"/>
<path d="M19.6846 20.8525C19.9231 21.3499 20.2938 21.7679 20.7538 22.0585C21.2138 22.349 21.7444 22.5002 22.2846 22.4946C23.3746 22.4946 24.0716 21.9353 24.0716 21.1604C24.0716 20.2368 23.3556 19.9063 22.1556 19.3675L21.4976 19.078C19.5976 18.2478 18.3376 17.2081 18.3376 15.0097C18.3376 12.9848 19.8376 11.4423 22.1906 11.4423C22.9523 11.3858 23.7133 11.5608 24.3788 11.9453C25.0442 12.3299 25.5846 12.907 25.9326 13.6047L23.8756 14.9543C23.7416 14.6084 23.5083 14.3124 23.2067 14.1056C22.905 13.8989 22.5493 13.7911 22.1866 13.7966C22.0283 13.7804 21.8685 13.7981 21.7173 13.8487C21.5661 13.8994 21.4269 13.9818 21.3084 14.0907C21.19 14.1996 21.095 14.3326 21.0294 14.4813C20.9638 14.63 20.9291 14.7911 20.9276 14.9543C20.9276 15.7641 21.4166 16.0925 22.5456 16.5964L23.2036 16.8858C25.4396 17.8701 26.7036 18.8728 26.7036 21.1276C26.7036 23.5589 24.8426 24.8911 22.3436 24.8911C21.3699 24.9548 20.399 24.7279 19.5482 24.2378C18.6973 23.7478 18.0029 23.0154 17.5486 22.1293L19.6846 20.8525ZM10.3896 21.0865C10.8026 21.8388 11.1786 22.4751 12.0826 22.4751C12.9466 22.4751 13.4926 22.1283 13.4926 20.7786V11.5962H16.1236V20.8146C16.1236 23.6103 14.5236 24.8829 12.1946 24.8829C11.3713 24.9291 10.5537 24.7185 9.84924 24.2789C9.14478 23.8392 8.58641 23.1911 8.24756 22.4197L10.3896 21.0865Z" fill="black"/>
</svg>
