<svg width="51" height="51" viewBox="0 0 51 51" fill="none" xmlns="http://www.w3.org/2000/svg">
<g clip-path="url(#clip0_110_118)">
<path d="M3.625 7H53.625V57H3.625V7Z" fill="#F5DE19"/>
<path d="M33.0141 37.8048C33.3869 38.5619 33.966 39.1984 34.6848 39.6407C35.4036 40.083 36.2327 40.3132 37.0766 40.3048C38.7797 40.3048 39.8688 39.4532 39.8688 38.2735C39.8688 36.8673 38.7501 36.3641 36.8751 35.5438L35.8469 35.1032C32.8782 33.8391 30.9094 32.2563 30.9094 28.9094C30.9094 25.8266 33.2532 23.4782 36.9297 23.4782C38.1199 23.3922 39.309 23.6586 40.3488 24.2441C41.3886 24.8295 42.2329 25.7082 42.7766 26.7704L39.5626 28.8251C39.3532 28.2984 38.9887 27.8478 38.5174 27.533C38.0461 27.2182 37.4902 27.0542 36.9235 27.0626C36.6762 27.0378 36.4265 27.0648 36.1903 27.1419C35.9541 27.219 35.7365 27.3444 35.5514 27.5102C35.3664 27.6761 35.2179 27.8786 35.1154 28.105C35.0129 28.3314 34.9588 28.5766 34.9563 28.8251C34.9563 30.0579 35.7204 30.5579 37.4844 31.3251L38.5126 31.7657C42.0063 33.2641 43.9813 34.7907 43.9813 38.2235C43.9813 41.9251 41.0735 43.9532 37.1688 43.9532C35.6474 44.0501 34.1305 43.7047 32.801 42.9586C31.4716 42.2125 30.3865 41.0976 29.6766 39.7485L33.0141 37.8048ZM18.4907 38.161C19.136 39.3063 19.7235 40.2751 21.136 40.2751C22.486 40.2751 23.3391 39.7469 23.3391 37.6923V23.7126H27.45V37.7469C27.45 42.0032 24.9501 43.9407 21.311 43.9407C20.0247 44.011 18.7472 43.6904 17.6464 43.0211C16.5457 42.3518 15.6733 41.3651 15.1438 40.1907L18.4907 38.161Z" fill="black"/>
</g>
<defs>
<clipPath id="clip0_110_118">
<rect width="50" height="50" fill="white" transform="translate(0.5 0.5)"/>
</clipPath>
</defs>
</svg>
