<svg width="221" height="47" viewBox="0 0 221 47" fill="none" xmlns="http://www.w3.org/2000/svg">
<path fill-rule="evenodd" clip-rule="evenodd" d="M0.506836 23.4045C0.506836 36.2906 11.8312 46.8085 25.7055 46.8085C39.5798 46.8085 50.9047 36.2906 50.9047 23.4045C50.9047 10.5183 39.5798 0 25.7055 0C11.8312 0 0.506836 10.5183 0.506836 23.4045ZM7.70665 23.4045C7.70665 14.1322 15.7222 6.68706 25.7055 6.68706C35.6888 6.68706 43.7049 14.1322 43.7049 23.4045C43.7049 32.6767 35.6888 40.1214 25.7055 40.1214C15.7222 40.1214 7.70665 32.6767 7.70665 23.4045Z" fill="#4FB8F9"/>
<path d="M11.8936 26.8115V32.1943H20.7145C20.8998 29.3834 21.8341 28.1537 24.3371 26.8115H11.8936ZM27.1661 26.8115C24.8414 26.8115 21.7719 29.421 21.7719 32.1943V46.3478H29.4397V33.8809C29.4397 31.9607 32.5293 32.1943 32.5293 32.1943H39.2981V26.8115H27.1661Z" fill="#4FB8F9"/>
<path d="M11.8936 22.8202C11.8936 22.8202 21.9082 9.32542 22.214 8.26527C22.5339 7.15624 22.214 3.14832 22.214 0.589844H29.1971L28.9377 7.40668C28.7029 9.6675 28.053 11.1983 26.0384 14.1114L19.5296 22.8202H11.8936ZM31.8634 22.8202L26.6278 15.4034C27.4127 14.3974 28.6241 12.3289 29.3041 10.3397L39.3079 22.8446L31.8634 22.8202Z" fill="#4FB8F9"/>
<path d="M11.8271 23.4639V26.0933H39.3999V23.4639H11.8271Z" fill="#4FB8F9"/>
<path d="M20.9497 22.8309L30.6982 22.8553L26.086 16.1377L20.9497 22.8309Z" fill="#4FB8F9"/>
<path d="M69.18 19.68H64.86V31H61.58V19.68H57.24V16.8H69.18V19.68ZM72.9819 16.8L76.0419 23.08L79.1419 16.8H82.7219L77.6619 26.16V31H74.4019V26.12L69.4219 16.8H72.9819Z" fill="#424242"/>
<path d="M88.7116 31V16.8H94.0116C95.5716 16.8 96.8716 17.12 97.9116 17.76C98.9649 18.3867 99.7582 19.24 100.292 20.32C100.825 21.3867 101.092 22.5733 101.092 23.88C101.092 25.32 100.798 26.5733 100.212 27.64C99.6249 28.7067 98.7982 29.5333 97.7316 30.12C96.6782 30.7067 95.4382 31 94.0116 31H88.7116ZM97.7516 23.88C97.7516 23.0533 97.6049 22.3267 97.3116 21.7C97.0182 21.06 96.5916 20.5667 96.0316 20.22C95.4716 19.86 94.7982 19.68 94.0116 19.68H91.9916V28.12H94.0116C94.8116 28.12 95.4849 27.94 96.0316 27.58C96.5916 27.2067 97.0182 26.7 97.3116 26.06C97.6049 25.4067 97.7516 24.68 97.7516 23.88ZM113.008 28.12V31H103.028V16.8H112.828V19.68H106.308V22.44H111.908V25.1H106.308V28.12H113.008ZM117.061 16.8L120.401 27.16L123.701 16.8H127.161L122.001 31H118.781L113.581 16.8H117.061ZM138.457 28.12V31H128.477V16.8H138.277V19.68H131.757V22.44H137.357V25.1H131.757V28.12H138.457ZM140.45 31V16.8H143.73V28.12H150.61V31H140.45ZM158.115 31.12C157.048 31.12 156.082 30.92 155.215 30.52C154.362 30.1067 153.622 29.56 152.995 28.88C152.382 28.1867 151.908 27.4133 151.575 26.56C151.242 25.6933 151.075 24.8 151.075 23.88C151.075 22.9333 151.248 22.0333 151.595 21.18C151.955 20.3267 152.448 19.5667 153.075 18.9C153.715 18.22 154.468 17.6867 155.335 17.3C156.202 16.9133 157.148 16.72 158.175 16.72C159.228 16.72 160.182 16.9267 161.035 17.34C161.902 17.74 162.642 18.2867 163.255 18.98C163.882 19.6733 164.362 20.4533 164.695 21.32C165.028 22.1733 165.195 23.0467 165.195 23.94C165.195 24.8867 165.022 25.7867 164.675 26.64C164.328 27.4933 163.835 28.26 163.195 28.94C162.555 29.6067 161.802 30.14 160.935 30.54C160.082 30.9267 159.142 31.12 158.115 31.12ZM154.415 23.92C154.415 24.4667 154.495 25 154.655 25.52C154.815 26.0267 155.048 26.48 155.355 26.88C155.675 27.28 156.068 27.6 156.535 27.84C157.002 28.08 157.535 28.2 158.135 28.2C158.762 28.2 159.308 28.08 159.775 27.84C160.242 27.5867 160.628 27.2533 160.935 26.84C161.242 26.4267 161.468 25.9667 161.615 25.46C161.775 24.94 161.855 24.4133 161.855 23.88C161.855 23.3333 161.775 22.8067 161.615 22.3C161.455 21.7933 161.215 21.34 160.895 20.94C160.575 20.5267 160.182 20.2067 159.715 19.98C159.248 19.7533 158.722 19.64 158.135 19.64C157.508 19.64 156.962 19.76 156.495 20C156.042 20.24 155.655 20.5667 155.335 20.98C155.028 21.38 154.795 21.84 154.635 22.36C154.488 22.8667 154.415 23.3867 154.415 23.92ZM167.09 31V16.8H173.15C173.83 16.8 174.45 16.94 175.01 17.22C175.584 17.4867 176.077 17.8533 176.49 18.32C176.904 18.7733 177.224 19.2867 177.45 19.86C177.677 20.4333 177.79 21.02 177.79 21.62C177.79 22.4333 177.597 23.2067 177.21 23.94C176.837 24.6733 176.31 25.2733 175.63 25.74C174.964 26.1933 174.17 26.42 173.25 26.42H170.37V31H167.09ZM170.37 23.56H173.05C173.304 23.56 173.537 23.4867 173.75 23.34C173.964 23.1933 174.137 22.9733 174.27 22.68C174.404 22.3867 174.47 22.0267 174.47 21.6C174.47 21.16 174.39 20.8 174.23 20.52C174.084 20.2267 173.89 20.0133 173.65 19.88C173.424 19.7467 173.184 19.68 172.93 19.68H170.37V23.56ZM179.551 31V16.8H185.611C186.291 16.8 186.911 16.94 187.471 17.22C188.045 17.4867 188.538 17.8533 188.951 18.32C189.365 18.7733 189.685 19.2867 189.911 19.86C190.138 20.4333 190.251 21.02 190.251 21.62C190.251 22.4333 190.058 23.2067 189.671 23.94C189.298 24.6733 188.771 25.2733 188.091 25.74C187.425 26.1933 186.631 26.42 185.711 26.42H182.831V31H179.551ZM182.831 23.56H185.511C185.765 23.56 185.998 23.4867 186.211 23.34C186.425 23.1933 186.598 22.9733 186.731 22.68C186.865 22.3867 186.931 22.0267 186.931 21.6C186.931 21.16 186.851 20.8 186.691 20.52C186.545 20.2267 186.351 20.0133 186.111 19.88C185.885 19.7467 185.645 19.68 185.391 19.68H182.831V23.56ZM201.992 28.12V31H192.012V16.8H201.812V19.68H195.292V22.44H200.892V25.1H195.292V28.12H201.992ZM203.985 31V16.8H210.385C211.052 16.8 211.665 16.94 212.225 17.22C212.798 17.4867 213.292 17.8533 213.705 18.32C214.118 18.7733 214.438 19.2867 214.665 19.86C214.905 20.4333 215.025 21.0133 215.025 21.6C215.025 22.1867 214.932 22.7467 214.745 23.28C214.558 23.8 214.292 24.2733 213.945 24.7C213.598 25.1133 213.185 25.4533 212.705 25.72L215.825 31H212.205L209.485 26.42H207.265V31H203.985ZM207.265 23.56H210.265C210.532 23.56 210.765 23.48 210.965 23.32C211.178 23.1467 211.352 22.9133 211.485 22.62C211.618 22.3267 211.685 21.9867 211.685 21.6C211.685 21.2133 211.605 20.88 211.445 20.6C211.298 20.3067 211.112 20.08 210.885 19.92C210.658 19.76 210.418 19.68 210.165 19.68H207.265V23.56Z" fill="#4FB8F9"/>
</svg>
