<svg width="112" height="112" viewBox="0 0 112 112" fill="none" xmlns="http://www.w3.org/2000/svg">
<path fill-rule="evenodd" clip-rule="evenodd" d="M0 56.0009C0 86.8338 25.1664 112 55.9993 112C86.8328 112 112 86.8338 112 56.0009C112 25.1675 86.8328 0 55.9993 0C25.1664 0 0 25.1675 0 56.0009ZM16.0004 56.0009C16.0004 33.8145 33.8134 16.0004 55.9993 16.0004C78.1854 16.0004 95.9999 33.8145 95.9999 56.0009C95.9999 78.1869 78.1854 96 55.9993 96C33.8134 96 16.0004 78.1869 16.0004 56.0009Z" fill="white"/>
<path d="M26 64.0958V76.9752H45.6031C46.0147 70.2494 48.0913 67.307 53.6538 64.0958H26ZM59.9404 64.0958C54.7744 64.0958 47.9529 70.3395 47.9529 76.9752V110.841H64.9931V81.011C64.9931 76.416 71.8589 76.9752 71.8589 76.9752H86.9015V64.0958H59.9404Z" fill="white"/>
<path d="M25.5439 55.3331C25.5439 55.3331 47.7997 23.0438 48.4794 20.5071C49.1902 17.8535 48.4794 8.2636 48.4794 2.14186H63.998L63.4215 18.4528C62.8999 23.8624 61.4554 27.5251 56.9783 34.4955L42.5136 55.3331H25.5439ZM69.9232 55.3331L58.2884 37.5868C60.0325 35.1796 62.7244 30.2303 64.236 25.4706L86.4674 55.3913L69.9232 55.3331Z" fill="white"/>
<path d="M25 56.0837V62.3753H86.2757V56.0837H25Z" fill="white"/>
<path d="M45.1929 54.5688L66.8569 54.627L56.6075 38.5539L45.1929 54.5688Z" fill="white"/>
</svg>
