<svg width="51" height="37" viewBox="0 0 51 37" fill="none" xmlns="http://www.w3.org/2000/svg">
<g clip-path="url(#clip0_110_154)">
<path d="M49.8737 6.115C49.5811 5.02971 49.0105 4.04029 48.2186 3.24526C47.4267 2.45022 46.4412 1.87732 45.3602 1.5836C41.4025 0.5 25.4741 0.5 25.4741 0.5C25.4741 0.5 9.54501 0.5328 5.58733 1.6164C4.50627 1.91014 3.52072 2.48307 2.72883 3.27814C1.93693 4.07321 1.36632 5.06267 1.07383 6.148C-0.123278 13.2076 -0.587657 23.9648 1.1067 30.742C1.39923 31.8273 1.96985 32.8167 2.76174 33.6117C3.55363 34.4068 4.53916 34.9797 5.6202 35.2734C9.57788 36.357 25.5066 36.357 25.5066 36.357C25.5066 36.357 41.4352 36.357 45.3926 35.2734C46.4737 34.9797 47.4593 34.4068 48.2512 33.6118C49.0431 32.8168 49.6138 31.8273 49.9063 30.742C51.169 23.6724 51.5581 12.922 49.8737 6.1152V6.115Z" fill="#FF0000"/>
<path d="M20.4042 26.112L33.618 18.4284L20.4042 10.7448V26.112Z" fill="white"/>
</g>
<defs>
<clipPath id="clip0_110_154">
<rect width="51" height="36" fill="white" transform="translate(0 0.5)"/>
</clipPath>
</defs>
</svg>
