<svg width="25" height="25" viewBox="0 0 25 25" fill="none" xmlns="http://www.w3.org/2000/svg">
<path d="M16.875 6C17.7038 6 18.4987 6.32924 19.0847 6.91529C19.6708 7.50134 20 8.2962 20 9.125V19.125C20 19.9538 19.6708 20.7487 19.0847 21.3347C18.4987 21.9208 17.7038 22.25 16.875 22.25H3.125C2.2962 22.25 1.50134 21.9208 0.915291 21.3347C0.32924 20.7487 0 19.9538 0 19.125V9.125C0 8.2962 0.32924 7.50134 0.915291 6.91529C1.50134 6.32924 2.2962 6 3.125 6H16.875ZM18.75 10.9513L10.3175 15.9138C10.2378 15.9606 10.1487 15.9891 10.0566 15.9973C9.9645 16.0055 9.87175 15.9932 9.785 15.9613L9.6825 15.9138L1.25 10.9538V19.125C1.25 19.6223 1.44754 20.0992 1.79917 20.4508C2.15081 20.8025 2.62772 21 3.125 21H16.875C17.3723 21 17.8492 20.8025 18.2008 20.4508C18.5525 20.0992 18.75 19.6223 18.75 19.125V10.9513ZM16.875 7.25H3.125C2.62772 7.25 2.15081 7.44754 1.79917 7.79917C1.44754 8.15081 1.25 8.62772 1.25 9.125V9.5025L10 14.65L18.75 9.5V9.125C18.75 8.62772 18.5525 8.15081 18.2008 7.79917C17.8492 7.44754 17.3723 7.25 16.875 7.25Z" fill="#5F6C7B"/>
</svg>
