<svg width="25" height="25" viewBox="0 0 25 25" fill="none" xmlns="http://www.w3.org/2000/svg">
<path d="M11.3281 12.5C11.3281 12.8108 11.4516 13.1089 11.6714 13.3286C11.8911 13.5484 12.1892 13.6719 12.5 13.6719C12.8108 13.6719 13.1089 13.5484 13.3287 13.3286C13.5484 13.1089 13.6719 12.8108 13.6719 12.5C13.6719 12.1892 13.5484 11.8911 13.3287 11.6714C13.1089 11.4516 12.8108 11.3281 12.5 11.3281C12.1892 11.3281 11.8911 11.4516 11.6714 11.6714C11.4516 11.8911 11.3281 12.1892 11.3281 12.5ZM16.211 12.5C16.211 12.8108 16.3344 13.1089 16.5542 13.3286C16.774 13.5484 17.072 13.6719 17.3828 13.6719C17.6936 13.6719 17.9917 13.5484 18.2115 13.3286C18.4312 13.1089 18.5547 12.8108 18.5547 12.5C18.5547 12.1892 18.4312 11.8911 18.2115 11.6714C17.9917 11.4516 17.6936 11.3281 17.3828 11.3281C17.072 11.3281 16.774 11.4516 16.5542 11.6714C16.3344 11.8911 16.211 12.1892 16.211 12.5ZM6.44533 12.5C6.44533 12.8108 6.5688 13.1089 6.78856 13.3286C7.00833 13.5484 7.3064 13.6719 7.61721 13.6719C7.92801 13.6719 8.22608 13.5484 8.44585 13.3286C8.66562 13.1089 8.78908 12.8108 8.78908 12.5C8.78908 12.1892 8.66562 11.8911 8.44585 11.6714C8.22608 11.4516 7.92801 11.3281 7.61721 11.3281C7.3064 11.3281 7.00833 11.4516 6.78856 11.6714C6.5688 11.8911 6.44533 12.1892 6.44533 12.5ZM22.5879 8.26172C22.0362 6.95068 21.2451 5.77393 20.2368 4.76318C19.2356 3.75829 18.047 2.95953 16.7383 2.41211C15.3955 1.84814 13.9697 1.5625 12.5 1.5625H12.4512C10.9717 1.56982 9.53859 1.86279 8.19094 2.43896C6.89347 2.992 5.71599 3.79218 4.72414 4.79492C3.7256 5.80322 2.94191 6.9751 2.39992 8.28125C1.8384 9.63379 1.55519 11.0718 1.56252 12.5513C1.5708 14.2468 1.97192 15.9173 2.73439 17.4316V21.1426C2.73439 21.4404 2.85271 21.7261 3.06332 21.9367C3.27394 22.1473 3.55959 22.2656 3.85744 22.2656H7.57082C9.08521 23.0281 10.7557 23.4292 12.4512 23.4375H12.5025C13.9649 23.4375 15.3833 23.1543 16.7188 22.6001C18.0208 22.0592 19.205 21.2698 20.2051 20.2759C21.2134 19.2773 22.0069 18.1104 22.5611 16.8091C23.1372 15.4614 23.4302 14.0283 23.4375 12.5488C23.4448 11.062 23.1568 9.61914 22.5879 8.26172ZM18.8989 18.9551C17.1875 20.6494 14.917 21.582 12.5 21.582H12.4585C10.9863 21.5747 9.52394 21.2085 8.23244 20.52L8.02736 20.4102H4.58986V16.9727L4.48 16.7676C3.79152 15.4761 3.42531 14.0137 3.41799 12.5415C3.40822 10.1074 4.3384 7.82227 6.04494 6.10107C7.74904 4.37988 10.0269 3.42773 12.461 3.41797H12.5025C13.7232 3.41797 14.9072 3.65478 16.023 4.12353C17.1118 4.58008 18.0884 5.23682 18.9282 6.07666C19.7656 6.91406 20.4248 7.89307 20.8814 8.98193C21.355 10.1099 21.5918 11.3062 21.5869 12.5415C21.5723 14.9731 20.6177 17.251 18.8989 18.9551Z" fill="#5F6C7B"/>
</svg>
