<svg width="43" height="43" viewBox="0 0 43 43" fill="none" xmlns="http://www.w3.org/2000/svg">
<path d="M36.637 36.638H30.2658V26.6602C30.2658 24.2809 30.2233 21.218 26.9521 21.218C23.6337 21.218 23.126 23.8104 23.126 26.487V36.6373H16.7549V16.119H22.8712V18.923H22.9568C23.5689 17.8764 24.4534 17.0154 25.5161 16.4317C26.5789 15.8481 27.78 15.5635 28.9916 15.6085C35.4492 15.6085 36.6397 19.8561 36.6397 25.3819L36.637 36.638V36.638ZM9.56585 13.3144C7.52386 13.3147 5.86819 11.6596 5.86785 9.61755C5.86752 7.57556 7.52251 5.91989 9.56451 5.91955C11.6065 5.91905 13.2622 7.57421 13.2625 9.61621C13.2627 10.5968 12.8733 11.5373 12.1801 12.2309C11.4868 12.9244 10.5465 13.3142 9.56585 13.3144V13.3144ZM12.7515 36.6382H6.37361V16.119H12.7514V36.638L12.7515 36.6382ZM39.8133 0.00251922H3.17212C1.44036 -0.0169652 0.0201875 1.37029 -0.000976562 3.10205V39.8961C0.0195156 41.6287 1.43952 43.0173 3.17195 42.9992H39.8133C41.5495 43.0207 42.975 41.6321 42.999 39.8961V3.09919C42.9743 1.36407 41.5486 -0.023012 39.8133 -0.000336245" fill="#0A66C2"/>
</svg>
