<svg width="33" height="33" viewBox="0 0 33 33" fill="none" xmlns="http://www.w3.org/2000/svg">
<path d="M17.3594 3.60938C17.3594 3.38145 17.2689 3.16287 17.1077 3.00171C16.9465 2.84054 16.7279 2.75 16.5 2.75C16.2721 2.75 16.0535 2.84054 15.8924 3.00171C15.7312 3.16287 15.6407 3.38145 15.6407 3.60938V25.916L6.97196 17.1009C6.89376 17.0167 6.79946 16.9491 6.69467 16.902C6.58987 16.8549 6.47669 16.8293 6.36182 16.8267C6.24696 16.8241 6.13274 16.8446 6.02592 16.8869C5.9191 16.9292 5.82185 16.9925 5.73992 17.073C5.65799 17.1536 5.59304 17.2497 5.54892 17.3558C5.5048 17.4619 5.4824 17.5758 5.48305 17.6907C5.48369 17.8056 5.50737 17.9192 5.55268 18.0247C5.59799 18.1303 5.66401 18.2257 5.74684 18.3054L15.8875 28.6179C15.9674 28.6992 16.0628 28.7637 16.168 28.8078C16.2731 28.8518 16.386 28.8745 16.5 28.8745C16.614 28.8745 16.7269 28.8518 16.8321 28.8078C16.9373 28.7637 17.0326 28.6992 17.1126 28.6179L27.2532 18.3054C27.336 18.2257 27.4021 18.1303 27.4474 18.0247C27.4927 17.9192 27.5164 17.8056 27.517 17.6907C27.5177 17.5758 27.4953 17.4619 27.4511 17.3558C27.407 17.2497 27.3421 17.1536 27.2601 17.073C27.1782 16.9925 27.081 16.9292 26.9741 16.8869C26.8673 16.8446 26.7531 16.8241 26.6382 16.8267C26.5234 16.8293 26.4102 16.8549 26.3054 16.902C26.2006 16.9491 26.1063 17.0167 26.0281 17.1009L17.3594 25.916V3.60938Z" fill="#094067"/>
</svg>
