<svg width="32" height="32" viewBox="0 0 32 32" fill="none" xmlns="http://www.w3.org/2000/svg">
<path d="M27.75 5H3.25C3.1125 5 3 5.1125 3 5.25V7.25C3 7.3875 3.1125 7.5 3.25 7.5H27.75C27.8875 7.5 28 7.3875 28 7.25V5.25C28 5.1125 27.8875 5 27.75 5ZM27.75 24.5H3.25C3.1125 24.5 3 24.6125 3 24.75V26.75C3 26.8875 3.1125 27 3.25 27H27.75C27.8875 27 28 26.8875 28 26.75V24.75C28 24.6125 27.8875 24.5 27.75 24.5ZM27.75 14.75H3.25C3.1125 14.75 3 14.8625 3 15V17C3 17.1375 3.1125 17.25 3.25 17.25H27.75C27.8875 17.25 28 17.1375 28 17V15C28 14.8625 27.8875 14.75 27.75 14.75Z" fill="#3DA9FC"/>
</svg>
