<svg width="100" height="100" viewBox="0 0 100 100" fill="none" xmlns="http://www.w3.org/2000/svg">
<path fill-rule="evenodd" clip-rule="evenodd" d="M0.5 50.0008C0.5 77.2548 22.7453 99.5 49.9994 99.5C77.254 99.5 99.5 77.2548 99.5 50.0008C99.5 22.7463 77.254 0.5 49.9994 0.5C22.7453 0.5 0.5 22.7463 0.5 50.0008ZM14.6432 50.0008C14.6432 30.3896 30.3886 14.6432 49.9994 14.6432C69.6103 14.6432 85.3571 30.3896 85.3571 50.0008C85.3571 69.6116 69.6103 85.3571 49.9994 85.3571C30.3886 85.3571 14.6432 69.6116 14.6432 50.0008Z" fill="#094067"/>
<path d="M23.4821 57.1561V68.5405H40.8098C41.1736 62.5954 43.0092 59.9946 47.9261 57.1561H23.4821ZM53.483 57.1561C48.9166 57.1561 42.8869 62.6751 42.8869 68.5405V98.4751H57.9492V72.1079C57.9492 68.0462 64.0181 68.5405 64.0181 68.5405H77.3147V57.1561H53.483Z" fill="#094067"/>
<path d="M23.4821 49.2851C23.4821 49.2851 43.1546 20.7436 43.7554 18.5014C44.3837 16.1558 43.7554 7.67904 43.7554 2.26785H57.4728L56.9632 16.6855C56.5021 21.4672 55.2253 24.7048 51.2678 30.8662L38.4821 49.2851H23.4821ZM62.7102 49.2851L52.4259 33.5986C53.9675 31.4708 56.347 27.096 57.6831 22.8888L77.3341 49.3366L62.7102 49.2851Z" fill="#094067"/>
<path d="M22.5982 50.0741V55.6354H76.7615V50.0741H22.5982Z" fill="#094067"/>
<path d="M40.4473 48.7349L59.5967 48.7864L50.537 34.5789L40.4473 48.7349Z" fill="#094067"/>
</svg>
