<svg width="221" height="48" viewBox="0 0 221 48" fill="none" xmlns="http://www.w3.org/2000/svg">
<path fill-rule="evenodd" clip-rule="evenodd" d="M0.506836 23.4535C0.506836 36.3665 11.8312 46.9065 25.7055 46.9065C39.5798 46.9065 50.9047 36.3665 50.9047 23.4535C50.9047 10.5403 39.5798 0 25.7055 0C11.8312 0 0.506836 10.5403 0.506836 23.4535ZM7.70665 23.4535C7.70665 14.1618 15.7222 6.70105 25.7055 6.70105C35.6888 6.70105 43.7049 14.1618 43.7049 23.4535C43.7049 32.7451 35.6888 40.2054 25.7055 40.2054C15.7222 40.2054 7.70665 32.7451 7.70665 23.4535Z" fill="#094067"/>
<path d="M11.8936 26.8676V32.2616H20.7145C20.8998 29.4448 21.8341 28.2126 24.3371 26.8676H11.8936ZM27.1661 26.8676C24.8414 26.8676 21.7719 29.4825 21.7719 32.2616V46.4447H29.4397V33.9517C29.4397 32.0275 32.5293 32.2616 32.5293 32.2616H39.2981V26.8676H27.1661Z" fill="#094067"/>
<path d="M11.8936 22.8679C11.8936 22.8679 21.9082 9.34492 22.214 8.28255C22.5339 7.1712 22.214 3.15489 22.214 0.591064H29.1971L28.9377 7.42217C28.7029 9.68772 28.053 11.2217 26.0384 14.1409L19.5296 22.8679H11.8936ZM31.8634 22.8679L26.6278 15.4356C27.4127 14.4275 28.6241 12.3547 29.3041 10.3613L39.3079 22.8924L31.8634 22.8679Z" fill="#094067"/>
<path d="M11.8271 23.5131V26.148H39.3999V23.5131H11.8271Z" fill="#094067"/>
<path d="M20.9497 22.8787L30.6982 22.9032L26.086 16.1715L20.9497 22.8787Z" fill="#094067"/>
<path d="M69.18 19.7212H64.86V31.0649H61.58V19.7212H57.24V16.8352H69.18V19.7212ZM72.9819 16.8352L76.0419 23.1283L79.1419 16.8352H82.7219L77.6619 26.2148V31.0649H74.4019V26.1747L69.4219 16.8352H72.9819Z" fill="#424242"/>
<path d="M88.7116 31.0649V16.8352H94.0116C95.5716 16.8352 96.8716 17.1558 97.9116 17.7972C98.9649 18.4252 99.7582 19.2803 100.292 20.3625C100.825 21.4315 101.092 22.6206 101.092 23.93C101.092 25.373 100.798 26.6289 100.212 27.6979C99.6249 28.7668 98.7982 29.5951 97.7316 30.183C96.6782 30.771 95.4382 31.0649 94.0116 31.0649H88.7116ZM97.7516 23.93C97.7516 23.1016 97.6049 22.3734 97.3116 21.7454C97.0182 21.1041 96.5916 20.6098 96.0316 20.2623C95.4716 19.9016 94.7982 19.7212 94.0116 19.7212H91.9916V28.1789H94.0116C94.8116 28.1789 95.4849 27.9985 96.0316 27.6377C96.5916 27.2636 97.0182 26.7559 97.3116 26.1145C97.6049 25.4599 97.7516 24.7317 97.7516 23.93ZM113.008 28.1789V31.0649H103.028V16.8352H112.828V19.7212H106.308V22.487H111.908V25.1525H106.308V28.1789H113.008ZM117.061 16.8352L120.401 27.2169L123.701 16.8352H127.161L122.001 31.0649H118.781L113.581 16.8352H117.061ZM138.457 28.1789V31.0649H128.477V16.8352H138.277V19.7212H131.757V22.487H137.357V25.1525H131.757V28.1789H138.457ZM140.45 31.0649V16.8352H143.73V28.1789H150.61V31.0649H140.45ZM158.115 31.1851C157.048 31.1851 156.082 30.9847 155.215 30.5839C154.362 30.1697 153.622 29.6219 152.995 28.9404C152.382 28.2457 151.908 27.4707 151.575 26.6156C151.242 25.7471 151.075 24.8519 151.075 23.93C151.075 22.9813 151.248 22.0794 151.595 21.2243C151.955 20.3693 152.448 19.6077 153.075 18.9396C153.715 18.2581 154.468 17.7237 155.335 17.3362C156.202 16.9487 157.148 16.755 158.175 16.755C159.228 16.755 160.182 16.9621 161.035 17.3763C161.902 17.7771 162.642 18.325 163.255 19.0197C163.882 19.7145 164.362 20.4961 164.695 21.3646C165.028 22.2197 165.195 23.0949 165.195 23.9901C165.195 24.9388 165.022 25.8407 164.675 26.6958C164.328 27.5508 163.835 28.3192 163.195 29.0006C162.555 29.6687 161.802 30.2031 160.935 30.6039C160.082 30.9914 159.142 31.1851 158.115 31.1851ZM154.415 23.9701C154.415 24.5179 154.495 25.0523 154.655 25.5734C154.815 26.0812 155.048 26.5354 155.355 26.9363C155.675 27.3371 156.068 27.6578 156.535 27.8983C157.002 28.1388 157.535 28.259 158.135 28.259C158.762 28.259 159.308 28.1388 159.775 27.8983C160.242 27.6444 160.628 27.3103 160.935 26.8962C161.242 26.482 161.468 26.0211 161.615 25.5133C161.775 24.9922 161.855 24.4644 161.855 23.93C161.855 23.3821 161.775 22.8544 161.615 22.3467C161.455 21.8389 161.215 21.3847 160.895 20.9838C160.575 20.5697 160.182 20.249 159.715 20.0218C159.248 19.7947 158.722 19.6811 158.135 19.6811C157.508 19.6811 156.962 19.8014 156.495 20.0419C156.042 20.2824 155.655 20.6098 155.335 21.0239C155.028 21.4248 154.795 21.8857 154.635 22.4068C154.488 22.9146 154.415 23.4357 154.415 23.9701ZM167.09 31.0649V16.8352H173.15C173.83 16.8352 174.45 16.9755 175.01 17.2561C175.584 17.5233 176.077 17.8907 176.49 18.3584C176.904 18.8126 177.224 19.3271 177.45 19.9016C177.677 20.4761 177.79 21.064 177.79 21.6653C177.79 22.4803 177.597 23.2553 177.21 23.9901C176.837 24.7249 176.31 25.3262 175.63 25.7939C174.964 26.2481 174.17 26.4753 173.25 26.4753H170.37V31.0649H167.09ZM170.37 23.6093H173.05C173.304 23.6093 173.537 23.5359 173.75 23.3889C173.964 23.2419 174.137 23.0214 174.27 22.7275C174.404 22.4336 174.47 22.0728 174.47 21.6452C174.47 21.2043 174.39 20.8435 174.23 20.563C174.084 20.269 173.89 20.0552 173.65 19.9216C173.424 19.788 173.184 19.7212 172.93 19.7212H170.37V23.6093ZM179.551 31.0649V16.8352H185.611C186.291 16.8352 186.911 16.9755 187.471 17.2561C188.045 17.5233 188.538 17.8907 188.951 18.3584C189.365 18.8126 189.685 19.3271 189.911 19.9016C190.138 20.4761 190.251 21.064 190.251 21.6653C190.251 22.4803 190.058 23.2553 189.671 23.9901C189.298 24.7249 188.771 25.3262 188.091 25.7939C187.425 26.2481 186.631 26.4753 185.711 26.4753H182.831V31.0649H179.551ZM182.831 23.6093H185.511C185.765 23.6093 185.998 23.5359 186.211 23.3889C186.425 23.2419 186.598 23.0214 186.731 22.7275C186.865 22.4336 186.931 22.0728 186.931 21.6452C186.931 21.2043 186.851 20.8435 186.691 20.563C186.545 20.269 186.351 20.0552 186.111 19.9216C185.885 19.788 185.645 19.7212 185.391 19.7212H182.831V23.6093ZM201.992 28.1789V31.0649H192.012V16.8352H201.812V19.7212H195.292V22.487H200.892V25.1525H195.292V28.1789H201.992ZM203.985 31.0649V16.8352H210.385C211.052 16.8352 211.665 16.9755 212.225 17.2561C212.798 17.5233 213.292 17.8907 213.705 18.3584C214.118 18.8126 214.438 19.3271 214.665 19.9016C214.905 20.4761 215.025 21.0573 215.025 21.6452C215.025 22.2331 214.932 22.7943 214.745 23.3287C214.558 23.8498 214.292 24.3241 213.945 24.7517C213.598 25.1659 213.185 25.5066 212.705 25.7738L215.825 31.0649H212.205L209.485 26.4753H207.265V31.0649H203.985ZM207.265 23.6093H210.265C210.532 23.6093 210.765 23.5292 210.965 23.3688C211.178 23.1952 211.352 22.9613 211.485 22.6674C211.618 22.3734 211.685 22.0327 211.685 21.6452C211.685 21.2577 211.605 20.9237 211.445 20.6431C211.298 20.3492 211.112 20.122 210.885 19.9617C210.658 19.8014 210.418 19.7212 210.165 19.7212H207.265V23.6093Z" fill="#094067"/>
</svg>
